<?xml version="1.0" encoding="UTF-8"?><svg id="_レイヤー_1" xmlns="http://www.w3.org/2000/svg" viewBox="0 0 1089 504"><defs><style>.cls-1{fill:none;}.cls-2{fill:#e51c25;}.cls-3{fill:#3b8e96;}</style></defs><g><path class="cls-1" d="m68.07,431.1c-5.35-3.2-12.27-1.46-15.47,3.89-3.2,5.35-1.46,12.27,3.89,15.47,5.35,3.2,12.27,1.46,15.47-3.89,3.2-5.35,1.46-12.27-3.89-15.47Z"/><path class="cls-2" d="m73.85,421.75c-3.58-2.14-7.51-3.17-11.4-3.2l9.95-16.9-9.44-5.65-18.66,31.46c-.5.66-.97,1.34-1.4,2.07-6.4,10.69-2.92,24.55,7.78,30.95s24.55,2.91,30.95-7.78c6.4-10.69,2.92-24.55-7.78-30.95Zm-17.38,29.04c-5.35-3.2-7.09-10.13-3.89-15.47,3.2-5.35,10.13-7.09,15.47-3.89s7.09,10.13,3.89,15.47c-3.2,5.35-10.13,7.09-15.47,3.89Z"/></g><g><path class="cls-3" d="m256.61,329.14c19.11,24.15,37.85,36.77,55.16,36.77,25.59,0,38.21-23.07,46.5-84.72-12.26-6.13-19.83-11.17-34.25-23.43-3.61,42.9-8.29,60.56-15.5,60.56-6.49,0-23.07-18.02-35.33-38.21-5.34-8.7-10.31-19.47-14.85-31.52l-37.1,14.69c9.86,25.86,21.74,48.82,35.37,65.86Z"/><path class="cls-3" d="m331.29,64.88c-30.28-33.53-34.97-38.21-55.16-55.88l-28.12,23.79q10.09,9.37,27.04,27.76c13.98,15.22,17.25,18.67,23.2,27.18l8.67-.54,24.37-22.31Z"/><path class="cls-3" d="m99.08,33.54c-1.8,12.62-6.85,29.56-14.06,47.22-17.3,41.82-39.29,73.9-72.46,107.07,8.29,12.26,11.9,20.19,19.11,41.46,17.3-17.66,22.35-23.79,36.77-45.06-.72,13.7-1.08,23.07-1.08,41.46v97.69c0,20.19-.72,32.08-2.52,44.34h44.34c-1.8-13.34-2.52-25.96-2.52-43.62V124.38c14.42-27.76,22.35-46.5,33.53-76.78l-41.1-14.06Z"/><path class="cls-3" d="m376.66,178.1c11.54,11.54,15.5,16.58,23.43,29.92,27.76-19.11,39.29-30.28,58.76-56.6-.72,6.49-1.08,12.26-1.08,15.5v13.7c0,3.97-.36,7.93-1.08,11.9h38.57c-1.08-4.33-1.44-8.65-1.44-13.34v-12.98c0-2.88-.36-7.21-1.08-14.78,9.01,13.7,14.06,19.11,32.08,34.25,9.73-16.94,11.17-19.11,20.91-29.56-17.66-9.73-25.23-15.14-31.72-23.07h24.15c11.17,0,17.66.36,23.07,1.08v-33.16c-4.33.72-12.26,1.08-23.07,1.08h-43.98v-43.26c0-10.82.36-16.94,1.44-23.79h-39.29c1.44,7.21,1.8,13.34,1.8,24.51v42.54h-42.9c-13.7,0-21.99-.36-30.28-1.8v34.61c7.93-1.44,16.94-1.8,29.92-1.8h19.47c-11.9,17.3-28.84,30.28-57.68,45.06Z"/><path class="cls-3" d="m559.06,51.2l-32.44-13.34c-6.13,17.66-14.06,32.44-25.59,48.31l30.64,13.7c11.17-16.58,13.7-20.91,27.4-48.67Z"/><path class="cls-3" d="m449.84,86.17c-7.21-19.11-11.54-27.76-25.23-47.58l-30.64,11.54c11.18,16.58,16.94,27.76,24.15,47.95l31.72-11.9Z"/><path class="cls-3" d="m511.48,297.42c11.17-15.86,14.42-23.43,21.63-46.14,15.5,0,21.63.36,29.2,1.8v-36.41c-6.85,1.44-14.06,1.8-26.68,1.8h-56.96c2.88-6.85,4.33-9.37,7.57-18.39l-37.49-7.21c-4.33,12.98-5.77,17.3-9.37,25.59h-27.04c-13.34,0-20.55-.36-28.48-1.8v36.41c8.29-1.44,15.5-1.8,28.48-1.8h10.45c-8.65,15.14-11.9,19.83-23.43,35.69,25.6,9.37,35.33,13.34,53.35,21.27-19.83,12.62-38.93,19.83-71.38,26.68,7.93,10.81,13.34,20.55,18.75,33.17,42.18-11.9,63.45-22.35,86.16-42.9,15.14,8.29,20.19,11.54,33.53,21.99l20.91-33.53c-12.26-7.93-14.78-9.37-29.2-16.22Zm-32.08-14.06c-10.82-4.69-15.5-6.49-30.64-11.9,6.49-9.73,7.57-11.54,12.62-20.19h34.25c-3.6,12.62-8.65,21.99-16.22,32.08Z"/><path class="cls-3" d="m689.67,131.58c.26.9.54,1.81.82,2.73.05-.91.1-1.8.14-2.72h-.97Z"/><path class="cls-3" d="m653.87,272.9c22.36-38.69,33.54-80.2,36.63-138.59-.29-.92-.56-1.83-.82-2.73l-119.99-1.31c-8.89,21.18-19.65,39.36-32.97,56.12,10.09,7.57,18.02,15.5,25.95,25.96,7.57-10.09,10.09-13.7,16.58-23.79,6.49,34.25,13.34,54.07,30.28,84.72-14.06,16.94-30.28,31.36-51.19,45.06-8.29,5.41-12.98,7.93-28.48,15.5,9.01,11.54,12.26,17.3,19.47,36.05,31.36-16.22,58.76-38.21,81.83-64.53,18.75,24.51,43.26,46.14,70.3,62,6.49-15.86,12.62-27.04,20.91-38.21-28.12-14.06-49.03-31.36-68.49-56.24Zm-22.35-35.33c-15.5-30.64-23.07-56.24-28.84-94.81,1.8-4.69,3.12-6.06,6.01-12.55h45.54c-1.8,45.06-8.65,77.08-22.71,107.36Z"/><path class="cls-3" d="m690.5,134.31c.35,1.11-.4-5.22-.02-4.09l.17,1.37c-.04.91-.1,1.81-.14,2.72Z"/><path class="cls-3" d="m1022.66,232.89h-94.09v-.36c2.09-1.29,4.13-2.55,6.12-3.8h-45.78c0,.54.01,1.08.01,1.64v2.52h-98.05c-16.94,0-31.36-.72-43.62-2.52v40.01c11.18-1.44,25.23-2.16,43.98-2.16h97.69v53.35c0,7.21-2.52,8.29-18.38,8.29-11.17,0-27.4-1.08-44.7-3.61,6.13,12.98,7.93,19.11,11.9,38.21,18.75,1.08,30.64,1.44,35.33,1.44,32.44,0,44.7-2.88,50.83-11.9,3.6-5.05,4.69-10.09,4.69-22.71v-63.09h93.73c18.75,0,34.25.72,44.7,2.16v-40.01c-10.82,1.8-26.68,2.52-44.34,2.52Z"/><path class="cls-3" d="m749.77,179.54h39.29v-55.88h10.15v-33.41h219.33v33.41h5.57v55.88h39.29c-1.08-8.65-1.8-17.66-1.8-27.4v-33.53c0-13.7.36-20.91,1.44-29.92-12.98,1.08-19.83,1.44-44.34,1.44h-16.22c8.29-11.18,18.75-27.76,27.04-43.26l-38.93-10.81c-6.13,16.94-18.74,39.65-29.56,54.07h-30.64c-7.93-23.07-10.09-28.12-24.87-55.88l-37.49,10.45c10.09,15.86,15.86,28.48,21.99,45.42h-38.21c-11.9-23.07-20.19-36.05-32.8-51.55l-36.41,10.81c14.06,17.66,18.75,24.87,27.04,40.74h-16.94c-24.15,0-26.32,0-42.54-1.44,1.08,9.37,1.44,16.94,1.44,29.92v33.16c0,11.18-.36,19.47-1.8,27.76Z"/><rect class="cls-2" x="799.21" y="90.26" width="219.33" height="33.41"/><path class="cls-2" d="m1000.67,179.9q6.85-5.77,12.98-10.81l-19.83-21.99c-6.49,1.08-13.34,1.44-27.4,1.44h-119.32c-15.5,0-25.6-.36-36.41-1.8v36.05c11.54-1.08,21.27-1.44,36.05-1.44h99.13c-15.14,13.34-27.04,21.27-42.54,29.2h-15.5c.67,5.66,1.02,11.63,1.07,18.19h45.78c24.77-15.53,42.29-28.48,65.98-48.83Z"/><path class="cls-3" d="m689.55,131.15s0,0,0,0c-.22,0-.17,0,0,0Z"/><path class="cls-3" d="m689.55,131.15c.04.14.09.29.13.43h.97c1.28-.33-.54-.41-1.1-.43Z"/><path class="cls-2" d="m691.4,132.08c.55.02,25.09-4.65,33.46-10.22l-19.52-54.83c-8.65,1.44-21.38,4.65-31.6,7.43l5.58,23.23-60.06-.7c3.97-14.06,7.21-26.32,9.37-35.69,2.88-12.26,3.6-15.5,5.05-19.83l-39.65-7.93c-.36,10.45-3.97,32.08-8.65,49.03-4.51,17.62-9.67,33.35-15.7,47.7l119.99,1.31c-.04-.14.8,1.42,1.73.49Z"/><path class="cls-2" d="m331.75,140.44c4.65-.93,6.51-.93,14.87-1.86v-32.31c-10.09,2.16-17.6,3.24-38.87,5.05l-77.14,6.13c-2.88-28.84-1.75-29.11-1.75-50.38,0-12.26.36-19.47,1.8-27.04l-43.62.72c.72,6.13,1.8,19.47,1.8,26.68.72,36.05-.21,26.64,2.32,55.48l-32.8,2.52c-9.01.72-20.55,1.44-27.4,1.44-2.52,0-5.41,0-11.18-.36l3.8,31.59c12.08,0,15.61-1.89,31.48-2.97l38.21-3.24c.48,3.35.99,6.71,1.53,10.08l-30.87,2.04c-9.01.58-20.55,1.15-27.4,1.15-2.52,0-5.41,0-11.18-.29l4.72,32.27c11.18-1.73,16.54-2.59,32.41-3.46l37.77-2.56c5.35,24.96,12.4,49.67,20.98,72.17l37.1-14.69c-6.82-18.09-12.66-39.08-17.34-60.36l67.51-4.12c11.9-1.08,21.18-1.86,26.95-1.86,2.16,0,5.58-.93,11.15-.93v-32.53c-13.01.93-19.52.93-40.89,2.79l-70.66,5.96c-.5-2.99-.98-5.97-1.43-8.91l76.42-6.13c11.9-1.08,16.03-.94,21.69-2.07Z"/><path class="cls-3" d="m306.92,87.19l-8.67.54c.95,1.36,1.97,2.85,3.12,4.55l5.55-5.09Z"/></g><path class="cls-3" d="m891,396v27h117v30.45c0,8.03-6.51,14.55-14.55,14.55h-75.45v27h90c14.91,0,27-12.09,27-27h0v-72h-144Z"/><path class="cls-3" d="m63,396l5.52,12.59,111.48.14v46.68c0,6.95-5.64,12.59-12.59,12.59h-77.41v27h90c14.91,0,27-12.09,27-27h0v-72H63Z"/><path class="cls-3" d="m729,423h117v29.4c0,8.62-6.99,15.6-15.6,15.6h-74.4v27h90c14.91,0,27-12.09,27-27h0v-45"/><rect class="cls-3" x="216" y="468" width="117" height="27"/><path class="cls-3" d="m332.72,396l-8.72,19.64-7.97,17.95,24.67,10.96,9.57-21.54h87.97l-4.34,24.82c-2.71,12.48-2.37,20.18-14.04,20.18h-68.86v27h71.86c14.91,0,32.66-9.3,34.96-25.56l10.18-73.44h-135.28Z"/><rect class="cls-3" x="639" y="477" width="72" height="18"/><rect class="cls-3" x="711" y="432" width="27" height="63"/><rect class="cls-3" x="639" y="450" width="81" height="18"/><rect class="cls-3" x="639" y="423" width="99" height="18"/><rect class="cls-3" x="756" y="423" width="27" height="36"/><rect class="cls-3" x="792" y="423" width="27" height="36"/><g><rect class="cls-3" x="486" y="396" width="99" height="19.29"/><rect class="cls-3" x="486" y="421.71" width="99" height="19.29"/><path class="cls-3" d="m594,396v56.75c0,8.42-6.83,15.25-15.25,15.25h-74.75v27h90c14.91,0,27-12.09,27-27v-72h-27Z"/></g><path class="cls-2" d="m1062,387c-9.94,0-18,8.06-18,18s8.06,18,18,18,18-8.06,18-18-8.06-18-18-18Zm0,27c-4.97,0-9-4.03-9-9s4.03-9,9-9,9,4.03,9,9-4.03,9-9,9Z"/></svg>