<?xml version="1.0" encoding="UTF-8"?><svg id="_レイヤー_1" xmlns="http://www.w3.org/2000/svg" viewBox="0 0 1600 800"><defs><style>.cls-1{fill:#e51c25;}.cls-2{fill:#3b8e96;}</style></defs><g><path class="cls-2" d="m271.41,547.04c0-8.69,1.68,2.39,1.06-3.19,18.09-3.19,28.02-5.32,32.98-5.32l53.2-4.26c12.77-2.13,15.8-2.54,20.22-6.38l14.9,15.96c-2.07,6-5.56,15.73-6.38,22.34-11.7,47.88-16.68,60.08-38.19,83.24-16.13,17.17-36.81,30.4-64.11,40.95-6-11.17-8.48-14.68-16.96-23.78,17.58-5.17,28.54-10.13,41.98-19.23,29.57-20.06,45.08-50.46,49.22-95.34l-87.92-1.79"/><path class="cls-2" d="m380.5,636.71c9.1,1.24,13.03,1.45,33.5,1.45h79.29c20.47,0,24.4-.21,33.5-1.45v28.75c-8.27-1.03-10.55-1.03-33.71-1.03h-78.88c-23.16,0-25.44,0-33.71,1.03v-28.75Z"/><path class="cls-2" d="m690.33,555.52c-2.07,3.1-2.89,4.96-5.17,12.41-9.51,31.43-24.2,59.35-42.4,79.83-19.03,21.71-41.77,37.85-73.62,52.53-5.79-10.34-8.48-13.86-17.58-21.71,20.68-8.48,32.26-14.68,45.29-24.4,29.57-21.92,49.01-50.25,60.39-87.27l-62.25,1.03c-12.62,20.06-28.75,37.85-48.39,52.94-6.2-8.48-9.31-11.17-20.06-17.79,23.58-16.13,38.47-32.68,53.56-59.97,6.41-11.79,9.72-19.85,10.55-27.3l28.33,5.58q-1.24,1.86-3.52,6.41-.62,1.03-2.69,5.79-.62,1.24-2.69,5.38-1.24,2.89-3.31,6.62c2.69-.21,6-.41,9.93-.41l45.29-.62c8.07,0,10.34-.41,15.1-2.07l13.24,13.03Z"/><path class="cls-2" d="m725.32,572.65c21.3,8.48,37.22,16.54,55.01,28.13l-12.82,23.37c-16.54-12.2-34.95-22.13-56.04-30.4l13.86-21.09Zm-9.31,92.65c15.72-.21,38.26-5.17,59.77-13.44,25.64-9.93,43.22-23.37,59.77-45.5,11.17-14.89,17.58-27.3,23.99-45.7,8.48,8.89,11.58,11.58,21.51,18.41-9.51,22.95-18.2,37.22-31.02,52.32-26.26,30.19-61.42,48.6-112.3,58.73-7.44,1.45-10.34,2.07-14.48,3.31l-7.24-28.13Zm25.23-142.7c21.3,8.27,37.64,16.13,55.01,26.68l-13.24,22.75c-18.82-12.62-37.22-22.34-55.22-28.54l13.44-20.89Z"/><path class="cls-2" d="m927.86,691.69c-8.81,0-11.45.18-15.86.71v-19.56c4.76.88,8.99,1.23,15.86,1.23h67.65v-26.6h-61.31c-8.81,0-11.45.18-15.86.7v-19.2c4.76.88,8.81,1.23,15.86,1.23h61.31v-24.49h-65.89c-8.63,0-11.28.18-15.86.7v-19.56c4.93.88,8.81,1.23,15.86,1.23h69.42c6.34,0,11.28-.18,16.38-.7-.35,6.34-.53,10.75-.53,18.5v80.69c0,6.69.18,9.34.7,13.39h-20.26v-8.28h-67.48Z"/><path class="cls-2" d="m1054.2,588.31c7.4,13.57,10.92,22.02,17.27,41.75l-19.91,6.34c-4.58-17.8-8.1-27.13-16.03-42.64l18.67-5.46Zm101.13,1.23c-1.06,2.64-1.41,3.52-2.47,8.99-5.11,23.96-13.04,43.34-24.31,58.67-13.04,17.79-27.66,29.25-53.74,42.46-4.58-7.75-6.69-10.39-14.09-17.44,12.33-4.76,19.56-8.63,29.95-16.21,20.61-14.98,32.42-32.95,39.99-61.14,2.29-8.63,3.17-14.8,3.17-20.26l21.49,4.93Zm-63.6-8.46c9.34,17.44,12.68,25.19,17.09,40.52l-19.56,6.17c-3.35-13.39-8.63-26.96-16.03-41.4l18.5-5.29Z"/><path class="cls-2" d="m1338.74,559.15c-1.86,3.52-2.48,4.96-3.52,9.31-10.34,39.5-22.54,64.32-42.39,86.65-20.27,22.75-42.4,37.85-76.93,52.74-5.79-11.17-8.48-15.1-18.2-24.61,18.2-5.79,29.99-11.17,45.29-21.09,32.26-20.89,52.53-50.05,62.66-90.17h-98.44c-13.86,0-18.61.21-26.06,1.24v-26.88c8.07,1.24,12.41,1.45,26.47,1.45h94.92c11.58,0,15.72-.41,22.13-2.07l14.06,13.44Z"/></g><path class="cls-1" d="m1399,515.2c0,18.93-17.15,44.75-40.91,46.43-9.07.69-14.39-8.28-14.39-16.66,0-11.14,7.1-23.36,14.39-31.44,8.67-9.56,23.76-17.25,30.16-17.25,4.04,0,8.87,4.73,8.87,6.9,0,1.08-2.37,1.08-3.06,1.77,4.44,1.38,4.93,6.31,4.93,10.25Zm-19.91,23.07c4.34-4.83,12.72-16.56,12.72-23.07,0-2.07-.99-5.82-3.75-5.82-2.56,0-5.13,3.65-6.11,3.65-.79,0-.99-1.18-.99-1.77-17.74,9.96-25.53,23.95-26.12,34.11-.1,1.87.3,7.59,3.06,7.59,2.96,0,9.27-3.75,11.53-5.82l9.66-8.87Z"/><path class="cls-1" d="m253.7,567.5l.2.2c3.94-1.77,7.98-4.14,12.52-4.14,7.29,0,11.83,6.11,11.83,13.11,0,15.97-21.09,30.46-27.8,30.46-5.42,0-17.15-7.69-17.15-20.11,0-17.25,18.83-33.12,32.33-41.4,4.83-2.96,5.82-3.45,11.24-3.45.89,0,7.89-.49,7.89,1.28,0,.99-1.38,1.77-2.07,2.07-4.73,2.17-11.53,6.8-15.48,10.25l-13.5,11.73Zm-3.55,12.81c-4.24,3.75-5.72,4.93-5.72,10.65,0,1.58,0,6.6,2.46,6.21,7.1-1.18,21.09-10.74,21.39-22.67,0-2.07-.2-3.75-2.86-3.75-4.24,0-12.12,6.8-15.28,9.56Z"/><g><path class="cls-2" d="m488.15,445.04c20.56,25.99,40.73,39.57,59.35,39.57,27.54,0,41.12-24.83,50.04-91.16-13.19-6.59-21.33-12.02-36.85-25.21-3.88,46.16-8.92,65.17-16.68,65.17-6.98,0-24.83-19.39-38.01-41.12-5.75-9.36-11.1-20.95-15.98-33.91l-39.92,15.8c10.61,27.83,23.39,52.53,38.06,70.86Z"/><path class="cls-2" d="m568.51,160.69c-32.58-36.07-37.63-41.12-59.35-60.12l-30.26,25.6q10.86,10.08,29.09,29.87c15.04,16.38,18.57,20.09,24.96,29.24l9.33-.58,26.22-24.01Z"/><path class="cls-2" d="m318.64,126.97c-1.94,13.58-7.37,31.81-15.13,50.81-18.62,45-42.28,79.52-77.97,115.2,8.92,13.19,12.8,21.72,20.56,44.61,18.62-19.01,24.05-25.6,39.56-48.49-.78,14.74-1.16,24.83-1.16,44.61v105.12c0,21.72-.78,34.52-2.72,47.71h47.71c-1.94-14.35-2.72-27.93-2.72-46.94v-214.89c15.52-29.87,24.05-50.04,36.07-82.62l-44.22-15.13Z"/><path class="cls-2" d="m617.33,282.52c12.41,12.41,16.68,17.84,25.21,32.2,29.87-20.56,42.28-32.58,63.23-60.9-.78,6.98-1.16,13.19-1.16,16.68v14.74c0,4.27-.39,8.53-1.16,12.8h41.5c-1.16-4.65-1.55-9.31-1.55-14.35v-13.96c0-3.1-.39-7.76-1.16-15.9,9.7,14.74,15.13,20.56,34.52,36.85,10.47-18.23,12.02-20.56,22.5-31.81-19.01-10.47-27.15-16.29-34.13-24.83h25.99c12.02,0,19.01.39,24.83,1.16v-35.69c-4.66.78-13.19,1.16-24.83,1.16h-47.32v-46.55c0-11.64.39-18.23,1.55-25.6h-42.28c1.55,7.76,1.94,14.35,1.94,26.38v45.77h-46.16c-14.74,0-23.66-.39-32.58-1.94v37.24c8.53-1.55,18.23-1.94,32.2-1.94h20.95c-12.8,18.62-31.03,32.58-62.06,48.49Z"/><path class="cls-2" d="m813.6,145.98l-34.91-14.35c-6.59,19.01-15.13,34.91-27.54,51.98l32.97,14.74c12.02-17.84,14.74-22.5,29.48-52.37Z"/><path class="cls-2" d="m696.07,183.6c-7.76-20.56-12.41-29.87-27.15-51.2l-32.97,12.41c12.03,17.84,18.23,29.87,25.99,51.59l34.13-12.8Z"/><path class="cls-2" d="m762.4,410.91c12.02-17.07,15.52-25.21,23.27-49.65,16.68,0,23.27.39,31.42,1.94v-39.18c-7.37,1.55-15.13,1.94-28.7,1.94h-61.29c3.1-7.37,4.66-10.09,8.15-19.78l-40.34-7.76c-4.65,13.96-6.21,18.62-10.08,27.54h-29.09c-14.35,0-22.11-.39-30.64-1.94v39.18c8.92-1.55,16.68-1.94,30.64-1.94h11.25c-9.31,16.29-12.8,21.33-25.21,38.4,27.54,10.09,38.01,14.35,57.41,22.89-21.33,13.58-41.89,21.33-76.8,28.7,8.53,11.64,14.35,22.11,20.17,35.69,45.38-12.8,68.27-24.05,92.71-46.16,16.29,8.92,21.72,12.41,36.07,23.66l22.5-36.07c-13.19-8.53-15.9-10.08-31.42-17.46Zm-34.52-15.13c-11.64-5.04-16.68-6.98-32.97-12.8,6.98-10.47,8.15-12.41,13.58-21.72h36.85c-3.88,13.58-9.31,23.66-17.46,34.52Z"/><path class="cls-2" d="m954.14,232.47c.28.96.58,1.94.89,2.94.05-.97.11-1.94.16-2.92h-1.04Z"/><path class="cls-2" d="m915.62,384.53c24.06-41.63,36.09-86.29,39.41-149.13-.31-.99-.61-1.97-.89-2.94l-129.11-1.41c-9.56,22.79-21.14,42.35-35.48,60.38,10.86,8.15,19.39,16.68,27.93,27.93,8.15-10.86,10.86-14.74,17.84-25.6,6.98,36.85,14.35,58.18,32.58,91.16-15.13,18.23-32.58,33.75-55.08,48.49-8.92,5.82-13.96,8.53-30.64,16.68,9.7,12.41,13.19,18.62,20.95,38.79,33.75-17.46,63.23-41.12,88.05-69.43,20.17,26.38,46.55,49.65,75.64,66.72,6.98-17.07,13.58-29.09,22.5-41.12-30.26-15.13-52.75-33.75-73.7-60.51Zm-24.05-38.01c-16.68-32.97-24.83-60.51-31.03-102.02,1.94-5.04,3.36-6.52,6.46-13.5h49c-1.94,48.49-9.31,82.94-24.43,115.52Z"/><path class="cls-2" d="m955.03,235.4c.37,1.2-.43-5.62-.03-4.4l.18,1.48c-.05.98-.1,1.95-.16,2.92Z"/><path class="cls-2" d="m1312.44,341.48h-101.24v-.39c2.25-1.39,4.44-2.75,6.58-4.09h-49.26c0,.59.01,1.17.01,1.76v2.72h-105.51c-18.23,0-33.75-.78-46.94-2.72v43.06c12.03-1.55,27.15-2.33,47.32-2.33h105.12v57.41c0,7.76-2.71,8.92-19.78,8.92-12.02,0-29.48-1.16-48.1-3.88,6.59,13.96,8.53,20.56,12.8,41.12,20.17,1.16,32.97,1.55,38.01,1.55,34.91,0,48.1-3.1,54.69-12.8,3.88-5.43,5.04-10.86,5.04-24.44v-67.88h100.85c20.17,0,36.85.78,48.1,2.33v-43.06c-11.64,1.94-28.71,2.72-47.71,2.72Z"/><path class="cls-2" d="m1018.8,284.07h42.28v-60.12h10.92v-35.95h236v35.95h5.99v60.12h42.28c-1.16-9.31-1.94-19.01-1.94-29.48v-36.07c0-14.74.39-22.5,1.55-32.2-13.96,1.16-21.33,1.55-47.71,1.55h-17.46c8.92-12.02,20.17-29.87,29.09-46.55l-41.89-11.64c-6.59,18.23-20.17,42.67-31.81,58.18h-32.97c-8.53-24.83-10.86-30.26-26.76-60.12l-40.34,11.25c10.86,17.07,17.07,30.64,23.66,48.87h-41.12c-12.8-24.83-21.72-38.79-35.3-55.47l-39.18,11.64c15.13,19.01,20.17,26.76,29.09,43.83h-18.23c-25.99,0-28.32,0-45.77-1.55,1.16,10.09,1.55,18.23,1.55,32.2v35.69c0,12.02-.39,20.95-1.94,29.87Z"/><rect class="cls-1" x="1072" y="188" width="236" height="35.95"/><path class="cls-1" d="m1288.78,284.46q7.37-6.21,13.96-11.64l-21.33-23.66c-6.98,1.16-14.35,1.55-29.48,1.55h-128.39c-16.68,0-27.54-.39-39.18-1.94v38.79c12.41-1.16,22.89-1.55,38.79-1.55h106.67c-16.29,14.35-29.09,22.89-45.77,31.42h-16.68c.72,6.09,1.1,12.52,1.15,19.57h49.26c26.65-16.71,45.51-30.64,71-52.54Z"/><path class="cls-2" d="m954,232.01s0,0,0,0c-.24,0-.19,0,0,0Z"/><path class="cls-2" d="m954,232.01c.04.15.09.31.14.46h1.04c1.38-.35-.58-.44-1.18-.46Z"/><path class="cls-1" d="m956,233c.6.02,27-5,36-11l-21-59c-9.31,1.55-23,5-34,8l6,25-64.62-.76c4.27-15.13,7.76-28.32,10.09-38.4,3.1-13.19,3.88-16.68,5.43-21.33l-42.67-8.53c-.39,11.25-4.27,34.52-9.31,52.75-4.86,18.96-10.41,35.89-16.89,51.33l129.11,1.41c-.04-.15.86,1.53,1.86.53Z"/><path class="cls-1" d="m569,242c5-1,7-1,16-2v-34.77c-10.86,2.33-18.94,3.49-41.83,5.43l-83.01,6.59c-3.1-31.03-1.88-31.32-1.88-54.21,0-13.19.39-20.95,1.94-29.09l-46.94.78c.78,6.59,1.94,20.95,1.94,28.7.78,38.79-.22,28.67,2.49,59.7l-35.3,2.72c-9.7.78-22.11,1.55-29.48,1.55-2.72,0-5.82,0-12.02-.39l4.08,33.99c13,0,16.8-2.03,33.87-3.2l41.12-3.49c.51,3.6,1.07,7.22,1.65,10.84l-33.22,2.19c-9.7.62-22.11,1.24-29.48,1.24-2.72,0-5.82,0-12.02-.31l5.08,34.72c12.02-1.86,17.8-2.79,34.87-3.72l40.64-2.76c5.75,26.85,13.34,53.44,22.58,77.66l39.92-15.8c-7.33-19.47-13.62-42.05-18.66-64.95l72.64-4.43c12.8-1.16,22.79-2,29-2,2.33,0,6-1,12-1v-35c-14,1-21,1-44,3l-76.03,6.41c-.54-3.22-1.05-6.42-1.54-9.59l82.23-6.59c12.8-1.16,17.25-1.01,23.34-2.23Z"/><path class="cls-2" d="m542.29,184.7l-9.33.58c1.03,1.47,2.12,3.07,3.36,4.89l5.98-5.47Z"/></g></svg>